<svg width="132" height="20" viewBox="0 0 132 20" fill="none" xmlns="http://www.w3.org/2000/svg">
    <rect x="59.9167" y="16" width="15.9167" height="4" fill="#ffffff"></rect>
    <rect x="71.8635" width="3.99242" height="3.99242" fill="#ffffff"></rect>
    <rect x="55.9167" width="4" height="16" fill="#ffffff"></rect>
    <rect x="71.8635" y="7.98486" width="3.99242" height="3.99242" fill="#ffffff"></rect>
    <rect x="67.8712" y="3.99243" width="3.99242" height="3.99242" fill="#ffffff"></rect>
    <rect x="63.8788" width="3.99242" height="3.99242" fill="#ffffff"></rect>
    <rect x="27.9167" y="4" width="4" height="12" fill="#ffffff"></rect>
    <rect x="4" width="16" height="4" fill="#ffffff"></rect>
    <rect x="99.8333" width="4" height="16" fill="#ffffff"></rect>
    <rect x="43.9167" y="4" width="4" height="12" fill="#ffffff"></rect>
    <rect x="83.8333" width="4" height="16" fill="#ffffff"></rect>
    <rect x="35.9319" y="7.98486" width="3.99242" height="3.99242" fill="#ffffff"></rect>
    <rect y="3.99243" width="3.99242" height="3.99242" fill="#ffffff"></rect>
    <rect x="4" y="8" width="12" height="4" fill="#ffffff"></rect>
    <rect x="87.8333" y="15.9697" width="3.99242" height="3.99242" fill="#ffffff"></rect>
    <path fill-rule="evenodd" clip-rule="evenodd" d="M115.75 0H111.75V4V20H115.75V4H127.75V0H115.75Z"
          fill="#ffffff"></path>
    <rect x="127.75" y="4" width="4" height="8" fill="#ffffff"></rect>
    <rect x="95.8181" y="15.9697" width="3.99242" height="3.99242" fill="#ffffff"></rect>
    <rect x="31.9167" width="12" height="4" fill="#ffffff"></rect>
    <rect x="119.75" y="12" width="8" height="4" fill="#ffffff"></rect>
    <rect y="16" width="16" height="4" fill="#ffffff"></rect>
    <rect x="91.8333" y="4" width="4" height="12" fill="#ffffff"></rect>
    <rect x="127.758" y="15.9697" width="3.99243" height="3.99242" fill="#ffffff"></rect>
    <rect x="15.9697" y="11.9773" width="3.99242" height="3.99242" fill="#ffffff"></rect>
    <rect x="31.9167" y="16" width="12" height="4" fill="#ffffff"></rect>
</svg>