<svg width="28" height="32" viewBox="-5 -3 38 38" fill="none" xmlns="http://www.w3.org/2000/svg">
<path d="M26 25C25.084 25 24 23.916 24 23V13C24 7.4865 19.5135 3 14 3C8.4865 3 4 7.4865 4 13V23C4 23.8965 2.8965 25 2 25C0.8945 25 0 25.8945 0 27C0 28.1055 0.8945 29 2 29H26C27.1055 29 28 28.1055 28 27C28 25.8945 27.1055 25 26 25Z" fill="#7B7B7B"/>
<path d="M14 35C16.209 35 18 33.209 18 31H10C10 33.209 11.791 35 14 35Z" fill="#7B7B7B"/>
<circle cx="21.5" cy="6.5" r="5.5" fill="#E77474" stroke="white" stroke-width="2"/>
</svg>
