<?xml version="1.0" encoding="UTF-8" standalone="no"?>
<!DOCTYPE svg PUBLIC "-//W3C//DTD SVG 1.1//EN" "http://www.w3.org/Graphics/SVG/1.1/DTD/svg11.dtd">
<svg width="100%" height="100%" viewBox="0 0 1080 1080" version="1.1" xmlns="http://www.w3.org/2000/svg" xmlns:xlink="http://www.w3.org/1999/xlink" xml:space="preserve" xmlns:serif="http://www.serif.com/" style="fill-rule:evenodd;clip-rule:evenodd;stroke-linejoin:round;stroke-miterlimit:2;">
    <g transform="matrix(1.08415,1.08415,-1.08415,1.08415,242.236,-626.316)">
        <path d="M632.448,408.364C632.448,403.714 629.967,399.417 625.939,397.092C611.859,388.963 578.705,369.821 564.625,361.692C560.597,359.366 558.116,355.07 558.116,350.419C558.116,326.748 558.116,253.898 558.116,230.226C558.116,225.576 560.597,221.279 564.625,218.954C576.339,212.19 601.403,197.72 619.108,187.498C623.135,185.173 628.097,185.173 632.124,187.498C636.151,189.823 638.632,194.12 638.632,198.77L638.632,239.591C638.632,244.241 636.151,248.538 632.124,250.863C630.15,252.003 627.982,253.255 626.009,254.394C621.981,256.719 619.501,261.016 619.501,265.666C619.501,278.048 619.501,302.597 619.501,314.979C619.501,319.629 621.981,323.926 626.009,326.251C636.732,332.443 657.992,344.717 668.715,350.908C672.742,353.233 677.704,353.233 681.731,350.908C692.454,344.717 713.714,332.443 724.437,326.251C728.464,323.926 730.945,319.629 730.945,314.979L730.945,265.666C730.945,261.016 728.464,256.719 724.437,254.394C722.463,253.255 720.295,252.003 718.322,250.863C714.295,248.538 711.814,244.241 711.814,239.591C711.814,229.951 711.814,212.8 711.814,198.77C711.814,194.12 714.295,189.823 718.322,187.498C722.349,185.173 727.311,185.173 731.338,187.498C749.043,197.72 774.106,212.19 785.821,218.954C789.848,221.279 792.329,225.576 792.329,230.226C792.329,253.898 792.329,326.748 792.329,350.419C792.329,355.07 789.848,359.366 785.821,361.692C771.741,369.821 738.586,388.963 724.506,397.092C720.479,399.417 717.998,403.714 717.998,408.364C717.998,444.34 717.998,599.125 717.998,645.244C717.998,652.433 712.171,658.26 704.982,658.26L645.464,658.26C638.275,658.26 632.448,652.433 632.448,645.244L632.448,408.364Z" style="fill:rgb(231,116,116);"/>
    </g>
</svg>
