<svg width="30" height="35" viewBox="0 0 30 35" fill="none" xmlns="http://www.w3.org/2000/svg">
<path d="M6 16.7532V23.3196C6 23.7257 6.24554 24.0914 6.62137 24.2451L12.6214 26.6997C13.2793 26.9688 14 26.4849 14 25.7741V19.2078C14 18.8017 13.7545 18.4359 13.3786 18.2822L7.37863 15.8277C6.72075 15.5585 6 16.0424 6 16.7532Z" fill="#E77474"/>
<path d="M24 16.7532V23.3196C24 23.7257 23.7545 24.0914 23.3786 24.2451L17.3786 26.6997C16.7207 26.9688 16 26.4849 16 25.7741V19.2078C16 18.8017 16.2455 18.4359 16.6214 18.2822L22.6214 15.8277C23.2793 15.5585 24 16.0424 24 16.7532Z" fill="#E77474"/>
<path d="M15.4061 8.44418L21.9439 11.3499C22.7357 11.7018 22.7357 12.8256 21.9439 13.1775L15.4061 16.0832C15.1476 16.1981 14.8524 16.1981 14.5939 16.0832L8.05608 13.1775C7.26426 12.8256 7.26426 11.7018 8.05608 11.3499L14.5939 8.44418C14.8524 8.32926 15.1476 8.32926 15.4061 8.44418Z" fill="#E77474"/>
<path d="M10.0936 3.93542C10.4721 3.86542 10.7845 4.23138 10.6558 4.59416L8.84934 9.68969C8.72073 10.0525 8.24763 10.14 7.99776 9.8472L4.48815 5.73496C4.23828 5.44219 4.39905 4.98872 4.77753 4.91871L10.0936 3.93542Z" fill="#E77474"/>
<path fill-rule="evenodd" clip-rule="evenodd" d="M0 18.2637C0 12.2691 3.51639 7.09588 8.59898 4.69411L9.93096 6.28903C5.26978 8.26463 2 12.8823 2 18.2637C2 25.4434 7.8203 31.2637 15 31.2637C16.3881 31.2637 17.7255 31.0461 18.9798 30.6432L18.0878 32.9455C17.0913 33.154 16.0585 33.2637 15 33.2637C6.71573 33.2637 0 26.5479 0 18.2637ZM22.9133 31.0089C27.1679 28.3617 30 23.6434 30 18.2637C30 9.9794 23.2843 3.26367 15 3.26367C14.2804 3.26367 13.5726 3.31435 12.88 3.41233L12.0806 5.59276C13.0191 5.37743 13.9962 5.26367 15 5.26367C22.1797 5.26367 28 11.084 28 18.2637C28 23.0139 25.4522 27.1691 21.6486 29.4372L22.9133 31.0089Z" fill="#E77474"/>
<path d="M21.2444 31.5407C20.8648 31.6038 20.5591 31.2322 20.6943 30.8718L22.5933 25.81C22.7285 25.4497 23.2031 25.3708 23.4476 25.6681L26.8818 29.8435C27.1263 30.1408 26.9573 30.5913 26.5776 30.6544L21.2444 31.5407Z" fill="#E77474"/>
</svg>
