<svg width="30" height="34" viewBox="0 0 30 34" fill="none" xmlns="http://www.w3.org/2000/svg">
<g clip-path="url(#clip0_171_36)">
<path d="M15 31.2639C22.732 31.2639 29 24.9959 29 17.2639C29 9.53193 22.732 3.26392 15 3.26392C7.26801 3.26392 1 9.53193 1 17.2639C1 24.9959 7.26801 31.2639 15 31.2639Z" stroke="#7B7B7B" stroke-width="2"/>
<path d="M6 15.7534V22.3198C6 22.7259 6.24554 23.0916 6.62137 23.2454L12.6214 25.6999C13.2793 25.9691 14 25.4852 14 24.7744V18.208C14 17.8019 13.7545 17.4362 13.3786 17.2824L7.37863 14.8279C6.72075 14.5588 6 15.0426 6 15.7534Z" fill="#7B7B7B"/>
<path d="M24 15.7534V22.3198C24 22.7259 23.7545 23.0916 23.3786 23.2454L17.3786 25.6999C16.7207 25.9691 16 25.4852 16 24.7744V18.208C16 17.8019 16.2455 17.4362 16.6214 17.2824L22.6214 14.8279C23.2793 14.5588 24 15.0426 24 15.7534Z" fill="#7B7B7B"/>
<path d="M15.406 7.44433L21.9438 10.35C22.7356 10.7019 22.7356 11.8257 21.9438 12.1776L15.406 15.0833C15.1475 15.1982 14.8523 15.1982 14.5938 15.0833L8.05602 12.1776C7.2642 11.8257 7.2642 10.7019 8.05602 10.35L14.5938 7.44433C14.8523 7.32943 15.1475 7.32943 15.406 7.44433Z" fill="#7B7B7B"/>
<path d="M12.8512 0.311655C13.2304 0.245705 13.5388 0.614985 13.4063 0.976365L11.5454 6.05229C11.413 6.41367 10.939 6.49611 10.6922 6.20068L7.22682 2.05115C6.9801 1.75572 7.14571 1.304 7.52491 1.23804L12.8512 0.311655Z" fill="white"/>
<path d="M10.0935 2.93543C10.472 2.86543 10.7844 3.23139 10.6557 3.59417L8.84926 8.68971C8.72065 9.05251 8.24755 9.14001 7.99768 8.84721L4.48807 4.73497C4.2382 4.4422 4.39897 3.98873 4.77745 3.91872L10.0935 2.93543Z" fill="#7B7B7B"/>
<path d="M18.4395 33.1138C18.0592 33.1729 17.7575 32.7979 17.8966 32.439L19.8496 27.3979C19.9886 27.039 20.4641 26.9652 20.7054 27.2651L24.0947 31.477C24.336 31.7769 24.1622 32.2255 23.7818 32.2846L18.4395 33.1138Z" fill="white"/>
<path d="M21.2443 30.5407C20.8647 30.6038 20.559 30.2322 20.6942 29.8718L22.5932 24.81C22.7284 24.4497 23.203 24.3708 23.4475 24.6681L26.8817 28.8435C27.1262 29.1408 26.9572 29.5913 26.5775 29.6544L21.2443 30.5407Z" fill="#7B7B7B"/>
</g>
<defs>
<clipPath id="clip0_171_36">
<rect width="30" height="34" fill="white"/>
</clipPath>
</defs>
</svg>
