<svg width="35" height="22" viewBox="0 0 35 22" fill="none" xmlns="http://www.w3.org/2000/svg">
<path d="M1.76111 17.0736C8.7905 6.29179 15.789 6.30886 22.3868 17.1246C23.1679 18.405 22.209 20 20.7091 20L3.40855 20C1.88142 20 0.927075 18.3529 1.76111 17.0736Z" fill="#E77474" stroke="white" stroke-width="2"/>
<path d="M16.5 5.5C16.5 7.70914 14.7091 9.5 12.5 9.5C10.2909 9.5 8.5 7.70914 8.5 5.5C8.5 3.29086 10.2909 1.5 12.5 1.5C14.7091 1.5 16.5 3.29086 16.5 5.5Z" fill="#E77474" stroke="white"/>
<path d="M12.7611 17.0736C19.7905 6.29179 26.789 6.30886 33.3868 17.1246C34.1679 18.405 33.209 20 31.7091 20L14.4085 20C12.8814 20 11.9271 18.3529 12.7611 17.0736Z" fill="#E77474" stroke="white" stroke-width="2"/>
<path d="M27.5 5.5C27.5 7.70914 25.7091 9.5 23.5 9.5C21.2909 9.5 19.5 7.70914 19.5 5.5C19.5 3.29086 21.2909 1.5 23.5 1.5C25.7091 1.5 27.5 3.29086 27.5 5.5Z" fill="#E77474" stroke="white"/>
<path d="M7.89077 18.0472C14.4924 8.63415 21.0623 8.651 27.2666 18.0975C28.1005 19.3673 27.1456 21 25.6265 21L9.49921 21C7.95185 21 7.00229 19.314 7.89077 18.0472Z" fill="#E77474" stroke="white" stroke-width="2"/>
<path d="M22 5.5C22 7.98528 19.9853 10 17.5 10C15.0147 10 13 7.98528 13 5.5C13 3.01472 15.0147 1 17.5 1C19.9853 1 22 3.01472 22 5.5Z" fill="#E77474" stroke="white" stroke-width="2"/>
</svg>
