<svg width="31" height="31" viewBox="-2 -5 35 35" fill="none" xmlns="http://www.w3.org/2000/svg">
<path d="M12.538 1.5439C10.246 2.54851 8.64491 4.83728 8.64491 7.5C8.64491 8.01204 8.70411 8.51025 8.81605 8.98816C6.48435 8.8197 4.64501 6.87465 4.64501 4.5C4.64501 2.01472 6.65972 0 9.14501 0C10.4988 0 11.713 0.597833 12.538 1.5439Z" fill="#E77474"/>
<path d="M21.4738 8.98817C21.5857 8.51026 21.6449 8.01204 21.6449 7.5C21.6449 4.83734 20.0439 2.54861 17.752 1.54397C18.577 0.59786 19.7912 0 21.145 0C23.6303 0 25.645 2.01472 25.645 4.5C25.645 6.87472 23.8056 8.81982 21.4738 8.98817Z" fill="#E77474"/>
<path d="M9.14445 10.0033C6.31481 10.0924 3.44815 11.9735 0.572117 15.6466C-0.858792 17.474 0.572786 20 2.89382 20H3.9332C3.9697 19.5341 4.13363 19.0627 4.44924 18.6257C6.57742 15.6793 8.70205 13.5867 10.815 12.348C10.0964 11.7057 9.52154 10.9061 9.14445 10.0033Z" fill="#E77474"/>
<path d="M26.538 20C26.5026 19.5614 26.3539 19.1173 26.0712 18.7002C23.9607 15.5858 21.8152 13.4161 19.6441 12.1912C20.2839 11.5774 20.7984 10.8341 21.1454 10.0033C24.1332 9.90964 27.0798 11.814 29.9526 15.7164C31.3035 17.5515 29.8634 20 27.5847 20H26.538Z" fill="#E77474"/>
<path d="M6.57212 18.6466C12.4853 11.0946 18.3589 11.1179 23.9526 18.7164C25.3035 20.5515 23.8634 23 21.5847 23L8.89382 23C6.57279 23 5.14121 20.474 6.57212 18.6466Z" fill="#E77474"/>
<path d="M19.645 7.5C19.645 9.98528 17.6303 12 15.145 12C12.6597 12 10.645 9.98528 10.645 7.5C10.645 5.01472 12.6597 3 15.145 3C17.6303 3 19.645 5.01472 19.645 7.5Z" fill="#E77474"/>
</svg>
