<svg width="30" height="30" viewBox="-7 -3 35 35" fill="none" xmlns="http://www.w3.org/2000/svg">
<path fill-rule="evenodd" clip-rule="evenodd" d="M0 9.13623C0 6.92709 1.79086 5.13623 4 5.13623H16.3967C18.6059 5.13623 20.3967 6.92709 20.3967 9.13623V23.0004C20.3967 25.2095 18.6059 27.0004 16.3967 27.0004H4C1.79086 27.0004 0 25.2095 0 23.0004V9.13623ZM3.81517 12.1793C3.81517 11.1257 4.66923 10.2717 5.72278 10.2717H14.6739C15.7274 10.2717 16.5815 11.1257 16.5815 12.1793C16.5815 13.2328 15.7274 14.0869 14.6739 14.0869H5.72278C4.66923 14.0869 3.81517 13.2328 3.81517 12.1793ZM5.72278 18.049C4.66923 18.049 3.81517 18.9031 3.81517 19.9566C3.81517 21.0102 4.66923 21.8642 5.72278 21.8642H14.6739C15.7274 21.8642 16.5815 21.0102 16.5815 19.9566C16.5815 18.9031 15.7274 18.049 14.6739 18.049H5.72278Z" fill="#E77474"/>
<rect x="4.25562" y="1.90771" width="11.8859" height="2.20109" rx="1.10054" fill="#E77474"/>
<rect x="7.19019" width="5.86957" height="3.08152" rx="1.54076" fill="#E77474"/>
</svg>
